<?xml version="1.0" encoding="utf-8"?>
<!-- Generator: Adobe Illustrator 16.0.0, SVG Export Plug-In . SVG Version: 6.00 Build 0)  -->
<!DOCTYPE svg PUBLIC "-//W3C//DTD SVG 1.1//EN" "http://www.w3.org/Graphics/SVG/1.1/DTD/svg11.dtd">
<svg version="1.1" id="Layer_1" xmlns="http://www.w3.org/2000/svg" xmlns:xlink="http://www.w3.org/1999/xlink" x="0px" y="0px"
	 width="512px" height="512px" viewBox="0 0 512 512" enable-background="new 0 0 512 512" xml:space="preserve">
<path d="M512,288v-64h-50.688c-2.313-14.906-6.125-29.281-11.438-42.969l43.813-25.313l-32-55.438l-43.75,25.281
	c-9.375-11.563-19.875-22.125-31.5-31.469l25.313-43.781l-55.438-32L331,62.156c-13.688-5.313-28.063-9.156-43-11.438V0h-64v50.719
	c-14.875,2.281-29.25,6.156-42.938,11.438L155.75,18.313l-55.438,32l25.25,43.781C114,103.438,103.438,114,94.125,125.563
	l-43.813-25.281l-32,55.406l43.875,25.344C56.875,194.719,53.031,209.094,50.75,224H0v64h50.75
	c2.281,14.906,6.125,29.281,11.438,42.969l-43.875,25.313l32,55.438l43.813-25.281C103.438,398,114,408.563,125.563,417.906
	l-25.25,43.781l55.438,32l25.313-43.844c13.688,5.313,28.063,9.125,42.938,11.438V512h64v-50.719
	c14.938-2.313,29.313-6.125,43-11.438l25.313,43.844l55.438-32l-25.313-43.781c11.625-9.344,22.125-19.906,31.5-31.5l43.75,25.281
	l32-55.406l-43.813-25.313c5.313-13.688,9.125-28.063,11.438-42.969H512z M256,400c-79.5,0-144-64.5-144-144
	c0-79.531,64.5-144,144-144s144,64.469,144,144C400,335.5,335.5,400,256,400z" fill="silver"/>
</svg>
