<!-- Copyright Header -->
<!--
==================================================================
Copyright Domnian (c) 2015. All Rights Reserved
Any Code contained within this document, and any associated APIs
with similar branding are the sole property of Domnian.
Distribution, reproduction, taking snippets, or claiming any
contents as your own will break the terms of the license, and
void any agreements with you, the third party. Thanks
==================================================================
-->
<!-- /Copyright Header -->

<svg id="logo" xmlns="http://www.w3.org/2000/svg" width="512" height="90" version="1.1">
  <!-- d -->
  <circle cx="30" cy="60" r="22.5" stroke="#009900" stroke-width="15" fill="none" />
  <line x1="53" y1="0" x2="53" y2="90" stroke="#009900" stroke-width="15" />
  <!-- o -->
  <circle cx="95" cy="60" r="22.5" stroke="#009900" stroke-width="15" fill="none" />
  <!-- m -->
  <path d="M 137 56 q 0 -15 15 -15" stroke="#009900" stroke-width="15" fill="none" />
  <path d="M 162 56 q 0 -15 -15 -15" stroke="#009900" stroke-width="15" fill="none" />
  <path d="M 162 56 q 0 -15 15 -15" stroke="#009900" stroke-width="15" fill="none" />
  <path d="M 187 56 q 0 -15 -15 -15" stroke="#009900" stroke-width="15" fill="none" />
  <line x1="137" y1="55" x2="137" y2="90" stroke="#009900" stroke-width="15" />
  <line x1="162" y1="55" x2="162" y2="90" stroke="#009900" stroke-width="15" />
  <line x1="187" y1="55" x2="187" y2="90" stroke="#009900" stroke-width="15" />
  <!-- n -->
  <path d="M 207 65 q 0 -25 25 -25" stroke="#009900" stroke-width="15" fill="none" />
  <path d="M 252 65 q 0 -25 -25 -25" stroke="#009900" stroke-width="15" fill="none" />
  <line x1="207" y1="64" x2="207" y2="90" stroke="#009900" stroke-width="15" />
  <line x1="252" y1="64" x2="252" y2="90" stroke="#009900" stroke-width="15" />
  <!-- i -->
  <line x1="272" y1="35" x2="272" y2="90" stroke="#009900" stroke-width="15" />
  <line x1="272" y1="15" x2="272" y2="30" stroke="#009900" stroke-width="15" />
  <!-- a -->
  <circle cx="315" cy="60" r="22.5" stroke="#009900" stroke-width="15" fill="none" />
  <line x1="337" y1="56" x2="337" y2="90" stroke="#009900" stroke-width="15" />
  <!-- n -->
  <path d="M 357 64 q 0 -25 25 -25" stroke="#009900" stroke-width="15" fill="none" />
  <path d="M 402 64 q 0 -25 -25 -25" stroke="#009900" stroke-width="15" fill="none" />
  <line x1="357" y1="63" x2="357" y2="90" stroke="#009900" stroke-width="15" />
  <line x1="402" y1="63" x2="402" y2="90" stroke="#009900" stroke-width="15" />
  <!-- Leaf -->
  <path d="M 435 67 q 0 -50 75 -60" stroke="#009900" stroke-width="5" fill="#00ff00" />
  <path d="M 435 65 q 20 25 75 -60" stroke="#009900" stroke-width="5" fill="#00ff00" />
  <path d="M 420 90 q 0 -15 60 -62" stroke="#009900" stroke-width="4" fill="none" />
  <!-- TM -->
  <text x="402" y="40" fill="#00cc00" style="font-size:50%;">TM</text>
  <text x="0" y="-47" fill="none" transform="rotate(90)" stroke="#00aa00" stroke-opacity="0.3">willies952002</text>
</svg>
